<svg xmlns="http://www.w3.org/2000/svg" viewBox="0 0 413.34 72.8"><defs><style>.cls-1{fill:#121c59;}</style></defs><g id="Layer_2" data-name="Layer 2"><g id="Layer_1-2" data-name="Layer 1"><path class="cls-1" d="M.11,71.32,0,26.46A25,25,0,0,1,25,1.4H70V25H23.75V71.32Z"/><rect class="cls-1" x="40.57" y="43.17" width="28.59" height="27.88" transform="translate(111.97 2.24) rotate(90)"/><path class="cls-1" d="M109.84,16.7V32.1h30.9V47.4h-30.9v24H90V1.4h54.9V16.7Z"/><path class="cls-1" d="M153.24,1.4H173V55.7h27.4l6,15.7h-53.2Z"/><path class="cls-1" d="M213.59,64.3q-8.66-8.5-8.65-24.1V1.4h19.8V39.6q0,16.8,13.3,16.8t13.2-16.8V1.4h19.5V40.2q0,15.6-8.65,24.1t-24.25,8.5Q222.24,72.8,213.59,64.3Z"/><path class="cls-1" d="M289.19,64.3q-8.65-8.5-8.65-24.1V1.4h19.8V39.6q0,16.8,13.3,16.8t13.2-16.8V1.4h19.5V40.2q0,15.6-8.65,24.1t-24.25,8.5Q297.84,72.8,289.19,64.3Z"/><path class="cls-1" d="M365.84,70.7a40.66,40.66,0,0,1-13-5.6l6.5-14.6a42.06,42.06,0,0,0,10.9,5,41.37,41.37,0,0,0,12.2,1.9q11.4,0,11.4-5.7,0-3-3.25-4.45a59.86,59.86,0,0,0-10.45-3,99,99,0,0,1-13.2-3.65,22.19,22.19,0,0,1-9.1-6.25Q354,30,354,22.7a20.09,20.09,0,0,1,3.5-11.55A23.44,23.44,0,0,1,368,3Q374.94,0,385,0a60.36,60.36,0,0,1,13.6,1.55,41.51,41.51,0,0,1,11.8,4.55l-6.1,14.7q-10-5.4-19.4-5.4-5.9,0-8.6,1.75a5.25,5.25,0,0,0-2.7,4.55q0,2.81,3.2,4.2a58.15,58.15,0,0,0,10.3,2.9,96.15,96.15,0,0,1,13.25,3.65,22.94,22.94,0,0,1,9.1,6.2q3.86,4.24,3.85,11.55a19.71,19.71,0,0,1-3.5,11.4,23.8,23.8,0,0,1-10.5,8.15,42.53,42.53,0,0,1-17,3A64.68,64.68,0,0,1,365.84,70.7Z"/></g></g></svg>