<svg id="Layer_1" data-name="Layer 1" xmlns="http://www.w3.org/2000/svg" viewBox="0 0 1300 900"><defs><style>.cls-1{fill:#121c59;}</style></defs><path class="cls-1" d="M443.44,484.92l-.11-44.86a25,25,0,0,1,25-25.06h45.05v23.63H467.08v46.29Z"/><rect class="cls-1" x="483.9" y="456.77" width="28.59" height="27.88" transform="translate(968.9 -27.49) rotate(90)"/><path class="cls-1" d="M553.17,430.3v15.4h30.9V461h-30.9v24h-19.8V415h54.9v15.3Z"/><path class="cls-1" d="M596.57,415h19.8v54.3h27.4l6,15.7h-53.2Z"/><path class="cls-1" d="M656.92,477.9q-8.65-8.5-8.65-24.1V415h19.8v38.2q0,16.8,13.3,16.8t13.2-16.8V415h19.5v38.8q0,15.6-8.65,24.1t-24.25,8.5Q665.57,486.4,656.92,477.9Z"/><path class="cls-1" d="M732.52,477.9q-8.65-8.5-8.65-24.1V415h19.8v38.2q0,16.8,13.3,16.8t13.2-16.8V415h19.5v38.8q0,15.6-8.65,24.1t-24.25,8.5Q741.17,486.4,732.52,477.9Z"/><path class="cls-1" d="M809.17,484.3a40.66,40.66,0,0,1-13-5.6l6.5-14.6a42.06,42.06,0,0,0,10.9,5,41.37,41.37,0,0,0,12.2,1.9q11.4,0,11.4-5.7,0-3-3.25-4.45a59.86,59.86,0,0,0-10.45-3.05,99,99,0,0,1-13.2-3.65,22.19,22.19,0,0,1-9.1-6.25q-3.79-4.31-3.8-11.6a20.09,20.09,0,0,1,3.5-11.55,23.44,23.44,0,0,1,10.45-8.15q6.95-3,17-3a60.36,60.36,0,0,1,13.6,1.55,41.51,41.51,0,0,1,11.8,4.55l-6.1,14.7q-10-5.4-19.4-5.4-5.89,0-8.6,1.75a5.25,5.25,0,0,0-2.7,4.55q0,2.81,3.2,4.2a58.15,58.15,0,0,0,10.3,2.9,96.15,96.15,0,0,1,13.25,3.65,22.94,22.94,0,0,1,9.1,6.2q3.85,4.25,3.85,11.55a19.71,19.71,0,0,1-3.5,11.4,23.8,23.8,0,0,1-10.5,8.15,42.53,42.53,0,0,1-17,3A64.68,64.68,0,0,1,809.17,484.3Z"/></svg>